<?xml version="1.0" encoding="iso-8859-1"?>
<!-- Generator: Adobe Illustrator 19.0.0, SVG Export Plug-In . SVG Version: 6.00 Build 0)  -->
<svg version="1.1" id="Capa_1" xmlns="http://www.w3.org/2000/svg" xmlns:xlink="http://www.w3.org/1999/xlink" x="0px" y="0px"
	 viewBox="0 0 511.99 511.99" style="enable-background:new 0 0 511.99 511.99;" xml:space="preserve">
<rect x="372.281" y="293.608" transform="matrix(-0.7209 0.6931 -0.6931 -0.7209 978.5741 420.9352)" style="fill:#CCCCCC;" width="64.483" height="227.834"/>
<g style="opacity:0.15;">
	<polygon points="424.468,381.814 361.732,409.614 324.172,370.542 370.66,325.846 	"/>
</g>
<rect x="299.026" y="317.651" transform="matrix(-0.7209 0.6931 -0.6931 -0.7209 832.92 355.5782)" style="fill:#FF0000;" width="91.66" height="55.73"/>
<g transform="matrix(0.7209 -0.6931 0.6931 0.7209 -9.733 23.752)">
	
		<ellipse transform="matrix(-0.7209 -0.6931 0.6931 -0.7209 -127.0682 477.4303)" cx="32.607" cy="264.303" rx="191.68" ry="191.68"/>
	
		<ellipse transform="matrix(-0.7209 -0.6931 0.6931 -0.7209 -127.0682 477.4303)" style="fill:#FFFFFF;" cx="32.607" cy="264.303" rx="158.112" ry="158.112"/>
</g>
<path style="fill:#999999;" d="M196.972,329.166c-36.136,0-72.216-14.112-99.168-42.16c-25.464-26.48-39.088-61.288-38.368-98.024
	c0.72-36.728,15.704-70.976,42.184-96.44c26.488-25.456,61.16-39.24,98.024-38.36c36.728,0.72,70.976,15.704,96.448,42.184
	c52.552,54.664,50.84,141.896-3.832,194.472C265.644,316.438,231.292,329.166,196.972,329.166z M196.876,58.158
	c-34.664,0-67.416,13.176-92.48,37.28c-25.712,24.72-40.264,57.968-40.96,93.624c-0.704,35.664,12.528,69.464,37.248,95.176
	c51.024,53.072,135.736,54.744,188.816,3.712s54.744-135.736,3.704-188.816l0,0c-24.72-25.712-57.976-40.256-93.632-40.96
	C198.676,58.166,197.78,58.158,196.876,58.158z"/>
<polygon points="133.1,287.278 125.1,287.278 125.1,246.358 155.668,215.79 161.324,221.446 133.1,249.67 "/>
<polygon points="268.788,287.278 260.788,287.278 260.788,249.67 232.564,221.446 238.22,215.79 268.788,246.358 "/>
<path d="M196.948,173.302L196.948,173.302c-10.816,0-19.672-8.848-19.672-19.672v-34.408c0-10.816,8.848-19.672,19.672-19.672l0,0
	c10.816,0,19.672,8.848,19.672,19.672v34.408C216.62,164.454,207.764,173.302,196.948,173.302z"/>
<polygon points="160.956,155.478 131.764,139.294 116.788,107.342 124.036,103.95 137.908,133.558 164.828,148.478 "/>
<polygon points="136.62,200.382 106.548,179.158 111.156,172.622 135.948,190.118 160.18,167.758 165.604,173.63 "/>
<polygon points="232.94,155.478 229.068,148.478 255.988,133.558 269.852,103.95 277.108,107.342 262.132,139.294 "/>
<polygon points="257.276,200.382 228.292,173.63 233.716,167.758 257.948,190.118 282.74,172.622 287.348,179.158 "/>
<polygon style="fill:#CFDCE5;" points="191.364,268.646 187.364,268.646 187.364,178.222 204.532,178.222 204.532,182.222 
	191.364,182.222 "/>
<path style="fill:#E50000;" d="M196.948,277.766L196.948,277.766c-23.368,0-42.488-19.12-42.488-42.488v-74.32
	c0-23.368,19.12-42.488,42.488-42.488l0,0c23.368,0,42.488,19.12,42.488,42.488v74.32
	C239.436,258.654,220.316,277.766,196.948,277.766z"/>
<path style="fill:#FF0000;" d="M154.46,185.478v-24.512c0-23.368,19.12-42.488,42.488-42.488l0,0
	c23.368,0,42.488,19.12,42.488,42.488v24.512H154.46z"/>
<rect x="200.208" y="99.585" transform="matrix(-0.7071 0.7071 -0.7071 -0.7071 439.1461 25.2692)" width="28.264" height="8"/>
<rect x="175.546" y="89.452" transform="matrix(-0.7071 0.7071 -0.7071 -0.7071 379.7494 49.8703)" width="8" height="28.264"/>
<g>
</g>
<g>
</g>
<g>
</g>
<g>
</g>
<g>
</g>
<g>
</g>
<g>
</g>
<g>
</g>
<g>
</g>
<g>
</g>
<g>
</g>
<g>
</g>
<g>
</g>
<g>
</g>
<g>
</g>
</svg>
